PathFileType	4	(X/Y/Z)	C:\Users\Basilio\Documents\Thesis Gigler\squatting_fais\c3dfiles\058\SJ_pre3\markers_experimental.trc
DataRate	CameraRate	NumFrames	NumMarkers	Units	OrigDataRate	OrigDataStartFrame	OrigNumFrames
200.000000	200.000000	4	61	mm	200.000000	1050	1400
Frame#	Time	FHD			LBHD			RBHD			C7			T10			CLAV			LSHO			LUUPA			LMUPA			LDUPA			LLEP			LMEP			LRAD			LUL			LRFIN			RSHO			RUPA1			RMUPA			RDUPA			RLEP			RMEP			RRAD			RUL			RUFIN			LASI			RASI			USACR			LSACR			RSACR			LTHI1			LTHI2			LTHI3			LTHI4			LLFC			LMFC			LTIB1			LTIB2			LTIB3			LTIB4			LLMAL			LMMAL			LHEE			LMT1			LMT2			LMT5			RTHI			RTHI2			RTHI3			RTHI4			RLFC			RMFC			RTIB1			RTIB2			RTIB3			RTIB4			RLMAL			RMMAL			RHEE			RMT1			RMT2			RMT5			
		X1	Y1	Z1	X2	Y2	Z2	X3	Y3	Z3	X4	Y4	Z4	X5	Y5	Z5	X6	Y6	Z6	X7	Y7	Z7	X8	Y8	Z8	X9	Y9	Z9	X10	Y10	Z10	X11	Y11	Z11	X12	Y12	Z12	X13	Y13	Z13	X14	Y14	Z14	X15	Y15	Z15	X16	Y16	Z16	X17	Y17	Z17	X18	Y18	Z18	X19	Y19	Z19	X20	Y20	Z20	X21	Y21	Z21	X22	Y22	Z22	X23	Y23	Z23	X24	Y24	Z24	X25	Y25	Z25	X26	Y26	Z26	X27	Y27	Z27	X28	Y28	Z28	X29	Y29	Z29	X30	Y30	Z30	X31	Y31	Z31	X32	Y32	Z32	X33	Y33	Z33	X34	Y34	Z34	X35	Y35	Z35	X36	Y36	Z36	X37	Y37	Z37	X38	Y38	Z38	X39	Y39	Z39	X40	Y40	Z40	X41	Y41	Z41	X42	Y42	Z42	X43	Y43	Z43	X44	Y44	Z44	X45	Y45	Z45	X46	Y46	Z46	X47	Y47	Z47	X48	Y48	Z48	X49	Y49	Z49	X50	Y50	Z50	X51	Y51	Z51	X52	Y52	Z52	X53	Y53	Z53	X54	Y54	Z54	X55	Y55	Z55	X56	Y56	Z56	X57	Y57	Z57	X58	Y58	Z58	X59	Y59	Z59	X60	Y60	Z60	X61	Y61	Z61	

1051	5.25	-206.6625061035157	2121.18408203125	-819.8419189453127	-350.2745666503907	2038.70166015625	-893.2175292968752	-200.1154022216797	2132.9990234375	-963.6383056640627	-320.9282531738282	1895.685302734375	-922.5310668945315	-282.0876159667969	1600.677734375	-886.7977294921877	-159.1624298095703	1891.333618164063	-881.6406860351565	-156.274154663086	1945.894653320313	-1044.653564453125	-258.1002197265626	1813.393920898438	-1212.623779296875	-222.8513946533204	1779.5625	-1221.269897460938	-270.0239562988282	1753.173217773438	-1248.42333984375	-287.0164794921876	1671.900146484375	-1278.633422851563	-345.7596435546876	1664.171264648438	-1230.359619140625	-242.184799194336	1494.629516601563	-1065.597412109375	-208.9526672363282	1442.711181640625	-1119.729370117188	-167.8988342285157	1512.961669921875	-1053.174194335938	-245.3394622802735	1966.791259765625	-745.2189941406251	-384.4794921875001	1832.9228515625	-619.4260253906251	-348.2512512207032	1803.574584960938	-600.3586425781251	-396.3039855957032	1774.2265625	-580.6304321289064	-421.3283996582032	1711.89208984375	-554.0686035156251	-453.1101074218751	1671.263793945313	-628.9447631835939	-246.2920379638672	1539.288208007813	-668.5368041992189	-230.1251831054688	1509.50537109375	-595.0477905273439	-166.5503997802735	1522.52783203125	-681.4733886718751	-97.09798431396487	1386.834594726563	-975.558776855469	-121.6031875610352	1402.3896484375	-737.4522705078126	-288.7873229980469	1489.300537109375	-870.0620117187502	-294.2919311523438	1454.925415039063	-895.4971923828127	-298.0353393554688	1458.6611328125	-838.5413818359377	-227.8380737304688	1110.628540039063	-1073.604248046875	-218.9525756835938	1026.163330078125	-1078.495727539063	-172.2644805908203	1016.184143066406	-1066.57080078125	-259.4466247558594	982.3880004882815	-1068.481079101563	-280.6195983886719	882.6248779296877	-1066.109130859375	-226.8505249023438	855.9185180664065	-956.9229125976565	-235.9847412109376	742.8716430664064	-1065.22900390625	-304.9414978027344	716.2246093750001	-1104.673461914063	-263.6912231445313	703.9990234375001	-1097.578369140625	-258.6845092773438	619.5330810546876	-1087.855224609375	-343.0658264160157	427.9531250000001	-1100.673583984375	-282.2497253417969	421.8970947265626	-1030.005126953125	-383.9058227539063	403.7997436523439	-1027.819702148438	-191.6130981445313	327.7674865722657	-1107.29345703125	-205.3604888916016	333.4413146972657	-1152.13330078125	-274.3204345703126	328.1704406738282	-1178.225830078125	-283.9170227050782	1197.9208984375	-674.1195068359376	-258.3321533203126	1137.76806640625	-660.2441406250001	-226.2897949218751	1133.101928710938	-656.9040527343751	-296.0326843261719	1063.911254882813	-681.0548095703126	-319.6493530273438	883.8073730468752	-693.4604492187501	-239.7234649658204	855.0375976562502	-801.3789672851565	-251.3276367187501	665.4461059570314	-724.8767700195314	-314.2476196289063	597.2436523437501	-670.3072509765626	-269.2019958496094	587.7678833007814	-683.3338623046876	-263.1952514648438	537.8401489257814	-710.3772583007814	-334.5618591308594	420.2178344726564	-684.9629516601564	-269.5767822265626	440.8171691894532	-750.1199951171876	-367.9818725585938	392.0018310546876	-769.792663574219	-170.5967102050782	350.8978271484376	-689.1760864257814	-187.756088256836	346.8557434082032	-639.9099121093751	-252.0257110595704	309.5934143066407	-621.5658569335939	
1052	5.255	-207.0621032714844	2117.887451171875	-819.6824340820315	-350.5591735839844	2035.287231445313	-893.497985839844	-200.5059814453126	2129.244873046875	-963.6506347656252	-321.5223693847657	1891.956298828125	-922.6296386718752	-282.8332214355469	1596.66943359375	-886.8314208984377	-159.9527587890625	1887.513671875	-881.5412597656252	-157.0823516845703	1942.192504882813	-1044.569458007813	-258.2299499511719	1809.473510742188	-1212.891235351563	-222.7122955322266	1775.478637695313	-1221.031005859375	-269.9203491210938	1749.35205078125	-1248.469482421875	-287.0864257812501	1668.10205078125	-1278.66943359375	-346.3046875000001	1660.243530273438	-1230.603881835938	-242.305648803711	1490.703979492188	-1065.59326171875	-209.0739746093751	1438.959228515625	-1119.74462890625	-167.8619384765625	1509.263061523438	-1053.036499023438	-246.3735656738282	1962.773681640625	-745.3511352539064	-384.586639404297	1829.336669921875	-618.9917602539064	-348.4323120117188	1799.619750976563	-600.0111694335939	-396.2987365722657	1770.206909179688	-580.4016113281251	-421.811248779297	1708.006591796875	-553.6787109375001	-453.6427307128907	1667.260009765625	-628.7635498046876	-246.9100952148438	1535.344482421875	-668.1886596679689	-230.4616394042969	1505.637939453125	-594.6116943359376	-166.863037109375	1518.807250976563	-681.3828735351564	-97.62441253662112	1383.264038085938	-975.4870605468752	-122.1081466674805	1399.252319335938	-737.2005004882814	-289.5274963378907	1485.102416992188	-869.718933105469	-294.8144226074219	1450.72412109375	-895.455505371094	-298.7921752929688	1454.414794921875	-838.2857055664065	-227.7085571289063	1106.6875	-1073.781982421875	-218.2364044189454	1022.328430175781	-1078.78857421875	-171.6541900634766	1012.599975585938	-1066.834228515625	-258.3698120117188	978.4212036132815	-1068.998291015625	-279.1908569335938	878.7299804687502	-1066.632690429688	-225.6941223144532	851.883728027344	-957.6523437500002	-235.0258941650391	738.6608886718751	-1065.7998046875	-303.0854187011719	712.3400878906251	-1105.518432617188	-262.5867614746094	699.8560180664064	-1098.276245117188	-257.9063110351563	615.1225585937501	-1088.56982421875	-342.6181640625001	424.238983154297	-1102.122314453125	-282.9862365722657	417.854461669922	-1030.482543945313	-384.717010498047	399.9990234375001	-1029.381591796875	-191.2999725341797	323.5126037597657	-1107.51953125	-205.2899017333985	329.5609436035157	-1152.102172851563	-273.9121704101563	324.7357788085938	-1178.820190429688	-283.8240356445313	1193.698608398438	-673.9234619140626	-257.8677368164063	1134.135498046875	-660.0744018554689	-225.8189697265626	1128.9892578125	-656.4224243164064	-295.2507324218751	1059.663330078125	-680.3861083984376	-317.7359008789063	879.706726074219	-692.2224731445314	-238.5507202148438	851.0517578125002	-800.2673950195315	-250.1787567138672	660.8906860351564	-723.8823852539064	-312.1549072265626	593.4040527343751	-668.6100463867189	-267.9359741210938	583.4966430664064	-682.2045898437501	-261.8152770996094	533.8110961914064	-709.4468383789064	-333.0177307128907	416.4165649414064	-683.2366943359376	-268.8574218750001	436.6583251953126	-749.1860961914064	-367.6127319335938	387.8626098632814	-767.1804199218751	-169.1122131347657	347.0940246582032	-689.1499023437501	-186.2083129882813	343.0257568359376	-639.6547241210939	-249.553939819336	305.9743347167969	-620.3946533203126	
1053	5.26	-207.9297943115235	2113.420654296875	-819.856872558594	-351.1649169921876	2030.800170898438	-893.6630859375002	-200.5846710205079	2125.237548828125	-963.4312744140627	-322.1260375976563	1888.228637695313	-922.6495361328127	-283.6236267089844	1592.54931640625	-887.0355224609377	-160.5098114013672	1883.558349609375	-881.5740966796877	-157.3819732666016	1938.084594726563	-1044.6376953125	-258.0952758789063	1805.462524414063	-1212.988891601563	-222.6225128173829	1770.9599609375	-1220.84033203125	-269.9883728027344	1745.211181640625	-1248.513671875	-287.1278381347657	1664.16162109375	-1278.732177734375	-346.5313415527344	1656.279296875	-1230.712524414063	-242.3892669677735	1486.91015625	-1065.517456054688	-209.3590393066407	1434.951538085938	-1119.662841796875	-168.13232421875	1505.5869140625	-1052.83349609375	-246.9437713623047	1958.943603515625	-745.1472778320314	-385.1505432128907	1824.927124023438	-618.5151367187501	-348.7142944335938	1795.281494140625	-599.8632812500001	-396.8006286621095	1765.814697265625	-580.0963134765626	-422.3825073242189	1703.976684570313	-553.3368530273439	-454.2068176269532	1663.119750976563	-628.4327392578126	-247.167221069336	1531.273193359375	-667.7081909179689	-230.7833251953126	1501.960205078125	-594.1340942382814	-167.2537231445313	1514.9130859375	-681.0128784179689	-98.14615631103518	1379.417114257813	-975.315856933594	-123.0508804321289	1395.303588867188	-736.9575195312501	-290.1970214843751	1480.685668945313	-869.410095214844	-295.3497924804688	1446.571411132813	-895.4256591796877	-299.6259155273438	1450.071044921875	-838.0626220703127	-227.1045074462891	1102.733520507813	-1074.080200195313	-217.5671844482422	1018.366027832031	-1079.22802734375	-170.827865600586	1008.749572753906	-1067.22900390625	-257.6318969726563	974.1707153320315	-1069.479248046875	-277.7252807617188	874.6201782226565	-1067.59814453125	-224.4002380371094	847.6794433593752	-958.352233886719	-233.6537322998047	734.2139282226564	-1066.222412109375	-303.1350097656251	708.3346557617189	-1106.195922851563	-261.3455505371094	695.5247192382814	-1098.973388671875	-257.7546691894532	610.7979125976564	-1089.024047851563	-342.5326232910157	420.412567138672	-1103.12548828125	-283.8378295898438	413.7675781250001	-1031.230712890625	-385.4173889160157	396.135223388672	-1030.968627929688	-192.1744537353516	319.6814270019532	-1107.35498046875	-204.8371124267579	325.6161193847657	-1152.359741210938	-273.1886596679688	320.9663391113282	-1179.545532226563	-283.5400695800782	1189.572021484375	-673.6160888671876	-257.4136352539063	1129.896240234375	-659.3373413085939	-225.5887451171876	1125.035034179688	-655.6039428710939	-294.2893066406251	1055.446411132813	-679.6649780273439	-315.9055175781251	875.3054199218752	-690.6975097656251	-237.1136779785157	846.625915527344	-799.1118774414065	-248.6867828369141	656.7098999023439	-722.9517822265626	-310.4725646972657	588.9217529296876	-667.0380249023439	-265.9564208984376	579.2628784179689	-681.2149047851564	-260.4626464843751	529.3262329101564	-708.3424682617189	-331.5686035156251	412.2492980957032	-681.5369262695314	-268.1431579589844	432.5136108398439	-748.1255493164064	-367.1196594238282	383.6442260742188	-764.9527587890626	-168.0239562988282	342.6367797851563	-688.8712768554689	-184.1062622070313	338.8552856445313	-639.3969726562501	-247.623275756836	301.9750671386719	-619.3613281250001	
1054	5.265	-208.4082641601563	2109.37451171875	-819.894470214844	-351.7174682617188	2027.25	-893.8803710937502	-200.914291381836	2121.09423828125	-963.5775146484377	-322.6670532226563	1884.158081054688	-922.6975097656252	-284.1401672363282	1588.478149414063	-887.0670166015627	-161.0395050048828	1879.059448242188	-881.555358886719	-157.9870758056641	1933.905517578125	-1044.62939453125	-257.5146484375001	1801.378662109375	-1213.421142578125	-222.5559844970704	1766.667602539063	-1220.765502929688	-270.0583496093751	1740.94970703125	-1248.601928710938	-287.2818298339844	1659.759399414063	-1278.966430664063	-346.5704650878907	1652.103759765625	-1230.971557617188	-242.5637512207032	1482.707153320313	-1065.275390625	-209.5603485107422	1430.880493164063	-1119.571044921875	-168.5380401611328	1501.426879882813	-1052.596313476563	-247.2408752441407	1954.430541992188	-744.9645996093751	-385.5089721679689	1820.767700195313	-617.9735107421876	-349.3331298828126	1790.554443359375	-599.7094726562501	-396.9486389160157	1761.525512695313	-579.7149658203126	-422.921356201172	1699.500244140625	-553.1054687500001	-454.7657470703126	1658.877197265625	-628.0925903320314	-247.2545776367188	1527.13037109375	-667.2587280273439	-231.3987884521485	1497.543579101563	-593.6441650390626	-167.89404296875	1510.838134765625	-680.8966064453126	-98.66768646240237	1375.518798828125	-975.1558227539065	-123.9408340454102	1391.214721679688	-736.8921508789064	-291.0857543945313	1476.024536132813	-869.1157836914065	-296.2937316894532	1441.788452148438	-895.053405761719	-300.2037658691407	1445.680297851563	-838.1322021484377	-226.8949584960938	1098.511840820313	-1074.237670898438	-216.4647521972657	1014.090881347656	-1079.6796875	-170.197738647461	1004.371704101563	-1067.546020507813	-256.5754394531251	969.8182373046877	-1069.943969726563	-276.3090515136719	870.0379638671877	-1068.144653320313	-222.9732513427735	843.3299560546877	-959.059509277344	-232.6125640869141	729.4667968750001	-1066.920288085938	-301.7474365234376	704.0700683593751	-1107.062133789063	-260.3956909179688	690.9253540039064	-1099.53466796875	-256.9441528320313	606.4916992187501	-1089.71533203125	-342.4400024414063	416.3034057617189	-1104.197265625	-284.2160644531251	409.4948730468751	-1031.560424804688	-385.9268798828126	391.5996704101564	-1032.79052734375	-191.9638671875	315.6055908203126	-1107.35546875	-204.3243103027344	321.7024536132813	-1152.433349609375	-272.5064086914063	316.9791870117188	-1180.402221679688	-283.3446655273438	1184.989624023438	-673.4840698242189	-256.9645080566407	1125.482543945313	-659.3726806640626	-224.8959350585938	1120.878173828125	-655.0792236328126	-293.5075378417969	1050.85693359375	-678.9036254882814	-314.1141662597657	870.6776123046877	-689.3339233398439	-235.7345733642579	842.1428222656252	-797.8657836914065	-247.3457183837891	652.2174072265626	-722.0057373046876	-308.6856994628907	584.5061645507814	-665.3502807617189	-264.3902893066407	574.7591552734376	-679.9852294921876	-259.2150573730469	524.8269042968751	-707.1388549804689	-330.1298217773438	407.808807373047	-679.7642211914064	-267.1990356445313	427.8560485839845	-746.7647094726564	-366.4699096679688	379.0226135253907	-762.8097534179689	-166.6637115478516	337.9371948242188	-688.8703002929689	-182.5747528076172	334.1371154785157	-638.8612670898439	-245.6087493896485	297.2743530273438	-618.2196044921876	
